<svg xmlns="http://www.w3.org/2000/svg" viewBox="0 0 144.7 24.4"><defs><style>      .cls-1 {        fill: #dffd7a;      }      .cls-2 {        fill: #fff;      }    </style></defs><g><g id="Laag_1"><g id="Laag_1-2" data-name="Laag_1"><path class="cls-2" d="M40.4,23.9c-1.5,0-2.7-.2-3.5-.5-.9-.3-1.5-.8-1.9-1.4s-.7-1.4-.8-2.3c0-.9,0-2,0-3.2h4v2c0,.6,0,1,.3,1.2s.8.3,1.7.3h.6c.6,0,1,0,1.3-.1.3,0,.5-.2.5-.4s0-.6,0-1.2v-3.2c0-.3,0-.8,0-1.2,0-.2-.4-.4-.8-.4s-.8-.1-1.2-.1h0c-1.5,0-2.7-.2-3.5-.5-.9-.3-1.5-.8-1.9-1.4-.4-.6-.7-1.4-.8-2.2,0-.9,0-1.9,0-3.1,0-2.2.5-3.7,1.4-4.6.9-.9,2.6-1.4,5-1.4s4,.5,5,1.5c.9,1,1.4,2.5,1.4,4.7h-4.1c0-.8,0-1.3,0-1.7,0-.3-.3-.5-.6-.6-.3,0-.8,0-1.6,0s-1.3,0-1.6,0c-.3,0-.5.3-.6.6,0,.3,0,.8,0,1.5v2c0,.3,0,.6.2.9,0,0,.2.2.6.3.4,0,.9.1,1.6.1,1.6,0,2.8.2,3.7.6.9.4,1.5.9,1.9,1.6.4.7.6,1.5.7,2.4,0,.9,0,1.9,0,3v.8c0,2.2-.5,3.8-1.4,4.7s-2.6,1.4-5,1.4h-.2ZM48.7,23.9V.2h6.4c1.9,0,3.3.3,4.3.8.9.6,1.5,1.3,1.8,2.3.3,1,.4,2.1.4,3.4v3c0,1.5-.2,2.7-.7,3.5-.4.8-1,1.4-1.7,1.8-.8.3-1.7.6-2.8.6s-2.3.1-3.6.1v8.2s-4.1,0-4.1,0ZM52.9,11.9h2.7c.6,0,1.1,0,1.4-.2.3-.1.5-.4.5-.7s0-.8,0-1.4v-3.3c0-.8-.2-1.4-.5-1.7-.4-.3-.8-.5-1.4-.5h-2.7v7.9h0ZM63.6,23.9V.1h11.5v3.9h-7.4v5.5h5.2v3.9h-5.2v6.6h7.4v3.9h-11.5ZM83.5,23.9c-2.4,0-4-.5-5-1.4-.9-.9-1.4-2.5-1.4-4.7V6.2c0-2.2.5-3.7,1.4-4.6.9-1,2.6-1.4,5-1.4s4,.5,5,1.4c.9,1,1.4,2.6,1.4,4.8h-4c0-.7,0-1.3,0-1.6,0-.3-.2-.6-.5-.6s-.9,0-1.7,0-1.3,0-1.6,0c-.3,0-.5.2-.6.6v14c0,.4.3.7.9.9.5.2,1.1.3,1.7.3s1.3,0,1.6-.3c.3-.2.5-.7.5-1.5s0-.4,0-.6v-1h4c0,1.2,0,2.2-.2,3.2,0,.9-.4,1.7-.8,2.3-.4.6-1,1.1-1.9,1.4s-2,.5-3.5.5h-.2ZM92,23.9V.2h4.1v23.8h-4.1ZM98.2,23.9V.1h11.5v3.9h-7.4v5.5h5.2v3.9h-5.2v10.5h-4.1ZM111.6,23.9V.2h4.1v23.8h-4.1ZM117.8,23.9V.1h11.5v3.9h-7.4v5.5h5.2v3.9h-5.2v6.6h7.4v3.9h-11.5ZM131.4,23.9V.1h6.4c2.4,0,4,.5,5,1.5.9,1,1.4,2.5,1.4,4.7v11c0,1.5-.2,2.8-.7,3.7-.5.9-1.1,1.5-2,2-.8.4-1.8.7-3,.8-1.1.1-2.3.2-3.5.2h-3.6,0ZM135.5,20.1c1.1,0,2,0,2.7-.1.7,0,1.2-.4,1.5-.8s.5-1.1.5-2V6.7c0-.9-.1-1.5-.4-1.9-.3-.4-.7-.6-1.2-.7-.6,0-1.3,0-2.2,0h-.8v16.1h-.1Z"></path><path class="cls-2" d="M40.4,23.9c-1.5,0-2.7-.2-3.5-.5-.9-.3-1.5-.8-1.9-1.4s-.7-1.4-.8-2.3c0-.9,0-2,0-3.2h4v2c0,.6,0,1,.3,1.2s.8.3,1.7.3h.6c.6,0,1,0,1.3-.1.3,0,.5-.2.5-.4s0-.6,0-1.2v-3.2c0-.3,0-.8,0-1.2,0-.2-.4-.4-.8-.4s-.8-.1-1.2-.1h0c-1.5,0-2.7-.2-3.5-.5-.9-.3-1.5-.8-1.9-1.4-.4-.6-.7-1.4-.8-2.2,0-.9,0-1.9,0-3.1,0-2.2.5-3.7,1.4-4.6.9-.9,2.6-1.4,5-1.4s4,.5,5,1.5c.9,1,1.4,2.5,1.4,4.7h-4.1c0-.8,0-1.3,0-1.7,0-.3-.3-.5-.6-.6-.3,0-.8,0-1.6,0s-1.3,0-1.6,0c-.3,0-.5.3-.6.6,0,.3,0,.8,0,1.5v2c0,.3,0,.6.2.9,0,0,.2.2.6.3.4,0,.9.1,1.6.1,1.6,0,2.8.2,3.7.6.9.4,1.5.9,1.9,1.6.4.7.6,1.5.7,2.4,0,.9,0,1.9,0,3v.8c0,2.2-.5,3.8-1.4,4.7s-2.6,1.4-5,1.4h-.2ZM48.7,23.9V.2h6.4c1.9,0,3.3.3,4.3.8.9.6,1.5,1.3,1.8,2.3.3,1,.4,2.1.4,3.4v3c0,1.5-.2,2.7-.7,3.5-.4.8-1,1.4-1.7,1.8-.8.3-1.7.6-2.8.6s-2.3.1-3.6.1v8.2s-4.1,0-4.1,0ZM52.9,11.9h2.7c.6,0,1.1,0,1.4-.2.3-.1.5-.4.5-.7s0-.8,0-1.4v-3.3c0-.8-.2-1.4-.5-1.7-.4-.3-.8-.5-1.4-.5h-2.7v7.9h0ZM63.6,23.9V.1h11.5v3.9h-7.4v5.5h5.2v3.9h-5.2v6.6h7.4v3.9h-11.5ZM83.5,23.9c-2.4,0-4-.5-5-1.4-.9-.9-1.4-2.5-1.4-4.7V6.2c0-2.2.5-3.7,1.4-4.6.9-1,2.6-1.4,5-1.4s4,.5,5,1.4c.9,1,1.4,2.6,1.4,4.8h-4c0-.7,0-1.3,0-1.6,0-.3-.2-.6-.5-.6s-.9,0-1.7,0-1.3,0-1.6,0c-.3,0-.5.2-.6.6v14c0,.4.3.7.9.9.5.2,1.1.3,1.7.3s1.3,0,1.6-.3c.3-.2.5-.7.5-1.5s0-.4,0-.6v-1h4c0,1.2,0,2.2-.2,3.2,0,.9-.4,1.7-.8,2.3-.4.6-1,1.1-1.9,1.4s-2,.5-3.5.5h-.2ZM92,23.9V.2h4.1v23.8h-4.1ZM98.2,23.9V.1h11.5v3.9h-7.4v5.5h5.2v3.9h-5.2v10.5h-4.1ZM111.6,23.9V.2h4.1v23.8h-4.1ZM117.8,23.9V.1h11.5v3.9h-7.4v5.5h5.2v3.9h-5.2v6.6h7.4v3.9h-11.5ZM131.4,23.9V.1h6.4c2.4,0,4,.5,5,1.5.9,1,1.4,2.5,1.4,4.7v11c0,1.5-.2,2.8-.7,3.7-.5.9-1.1,1.5-2,2-.8.4-1.8.7-3,.8-1.1.1-2.3.2-3.5.2h-3.6,0ZM135.5,20.1c1.1,0,2,0,2.7-.1.7,0,1.2-.4,1.5-.8s.5-1.1.5-2V6.7c0-.9-.1-1.5-.4-1.9-.3-.4-.7-.6-1.2-.7-.6,0-1.3,0-2.2,0h-.8v16.1h-.1Z"></path><path class="cls-1" d="M1.2,16.4c1,2.4,2.6,4.4,4.8,5.8,2.1,1.4,4.7,2.2,7.2,2.2s5.1-.8,7.3-2.2c2.2-1.4,3.8-3.5,4.8-5.9l-4-1.6c-.7,1.6-1.8,2.9-3.2,3.9-1.4,1-3.1,1.5-4.8,1.5s-3.4-.5-4.8-1.4c-1.4-.9-2.5-2.3-3.2-3.9l-4,1.7h0Z"></path><path class="cls-1" d="M.5,0c0,1.7.3,3.4,1,4.9.6,1.6,1.6,3,2.8,4.2,1.2,1.2,2.6,2.2,4.2,2.8s3.2,1,4.9,1,3.4-.3,4.9-1c1.6-.6,3-1.6,4.2-2.8s2.1-2.6,2.8-4.2C25.9,3.3,26.3,1.7,26.3,0,26.3,0,.5,0,.5,0Z"></path><path class="cls-1" d="M1.2,16.4c1,2.4,2.6,4.4,4.8,5.8,2.1,1.4,4.7,2.2,7.2,2.2s5.1-.8,7.3-2.2c2.2-1.4,3.8-3.5,4.8-5.9l-4-1.6c-.7,1.6-1.8,2.9-3.2,3.9-1.4,1-3.1,1.5-4.8,1.5s-3.4-.5-4.8-1.4c-1.4-.9-2.5-2.3-3.2-3.9l-4,1.7h0Z"></path><path class="cls-1" d="M.5,0c0,1.7.3,3.4,1,4.9.6,1.6,1.6,3,2.8,4.2,1.2,1.2,2.6,2.2,4.2,2.8s3.2,1,4.9,1,3.4-.3,4.9-1c1.6-.6,3-1.6,4.2-2.8s2.1-2.6,2.8-4.2C25.9,3.3,26.3,1.7,26.3,0,26.3,0,.5,0,.5,0Z"></path></g></g></g></svg>